<svg xmlns="http://www.w3.org/2000/svg" width="6.9375in" height="9.4375in" viewBox="0 0 2664 3624">
<rect width="2664" height="3624" fill="white"/>
<g>
<path d="M 1749 1117 C 1745.97 1118.75,1746.47 1119.75,1747 1125 C 1747.53 1130.25,1757.13 1201.69,1758 1207 C 1758.88 1212.31,1761.53 1213.43,1762 1216 C 1762.47 1218.57,1765.42 1247.79,1766 1251 C 1766.58 1254.21,1770.95 1265.69,1772 1271 C 1773.05 1276.31,1782.83 1336.46,1784 1342 C 1785.17 1347.54,1790.48 1364.31,1792 1366 C 1793.52 1367.69,1807.20 1370.94,1810 1371 C 1812.80 1371.06,1837.55 1367.12,1840 1367 C 1842.45 1366.88,1850.72 1369.00,1852 1369 C 1853.28 1369.00,1860.66 1368.05,1862 1367 C 1863.34 1365.95,1874.24 1352.34,1875 1351 C 1875.76 1349.66,1875.47 1345.05,1875 1344 C 1874.53 1342.95,1868.81 1340.53,1867 1333 C 1865.19 1325.47,1844.76 1222.88,1844 1215 C 1843.24 1207.13,1853.42 1200.92,1854 1198 C 1854.58 1195.08,1853.36 1169.20,1854 1165 C 1854.64 1160.80,1863.60 1129.38,1865 1126 C 1866.40 1122.62,1876.60 1108.28,1878 1107 C 1879.40 1105.72,1887.78 1104.00,1889 1104 C 1890.22 1104.00,1897.95 1106.24,1899 1107 C 1900.05 1107.76,1905.66 1114.67,1907 1117 C 1908.34 1119.33,1920.37 1142.97,1922 1147 C 1923.63 1151.03,1933.31 1179.70,1935 1186 C 1936.69 1192.30,1949.37 1244.44,1951 1255 C 1952.63 1265.56,1961.89 1359.24,1963 1367 C 1964.11 1374.76,1969.30 1386.54,1970 1388 C 1970.70 1389.46,1973.13 1391.77,1975 1392 C 1976.87 1392.23,1998.56 1392.35,2002 1392 C 2005.44 1391.65,2031.43 1386.82,2034 1386 C 2036.57 1385.18,2045.36 1378.93,2046 1378 C 2046.64 1377.07,2045.47 1371.17,2045 1370 C 2044.53 1368.83,2038.64 1363.19,2038 1358 C 2037.36 1352.81,2034.82 1289.34,2034 1281 C 2033.18 1272.66,2025.34 1221.53,2024 1215 C 2022.66 1208.47,2011.70 1173.20,2011 1169 C 2010.30 1164.80,2012.64 1145.51,2012 1143 C 2011.36 1140.49,2001.75 1129.21,2000 1126 C 1998.25 1122.79,1983.75 1090.86,1982 1088 C 1980.25 1085.14,1971.69 1078.17,1970 1077 C 1968.31 1075.83,1955.28 1068.76,1953 1068 C 1950.72 1067.24,1934.73 1064.35,1931 1064 C 1927.27 1063.65,1893.72 1061.83,1889 1062 C 1884.28 1062.17,1853.79 1066.30,1850 1067 C 1846.21 1067.70,1826.28 1073.13,1824 1074 C 1821.72 1074.88,1812.46 1080.78,1811 1082 C 1809.54 1083.22,1802.62 1092.96,1799 1095 C 1795.38 1097.04,1752.03 1115.25,1749 1117 Z" fill="black" fill-rule="evenodd"/>
<path d="M 1493 1115 C 1491.31 1116.81,1484.46 1127.14,1483 1130 C 1481.54 1132.86,1470.45 1157.29,1468 1164 C 1465.55 1170.71,1442.58 1238.53,1441 1245 C 1439.42 1251.47,1439.83 1271.62,1441 1275 C 1442.17 1278.38,1459.08 1300.90,1461 1303 C 1462.92 1305.10,1471.43 1310.07,1474 1311 C 1476.57 1311.93,1499.63 1318.53,1505 1319 C 1510.37 1319.47,1559.76 1319.70,1566 1319 C 1572.24 1318.30,1608.73 1307.53,1612 1307 C 1615.27 1306.47,1620.42 1308.89,1622 1310 C 1623.58 1311.11,1637.08 1324.72,1639 1326 C 1640.92 1327.28,1651.33 1332.06,1655 1332 C 1658.67 1331.94,1698.62 1325.82,1702 1325 C 1705.38 1324.18,1712.42 1319.05,1713 1318 C 1713.58 1316.95,1712.76 1308.87,1712 1307 C 1711.24 1305.13,1701.40 1287.92,1700 1286 C 1698.60 1284.08,1689.75 1276.74,1688 1274 C 1686.25 1271.26,1672.63 1245.83,1670 1239 C 1667.38 1232.17,1645.10 1164.17,1643 1157 C 1640.90 1149.83,1635.28 1119.38,1634 1116 C 1632.72 1112.62,1623.10 1100.63,1621 1099 C 1618.90 1097.37,1602.08 1088.70,1598 1088 C 1593.92 1087.30,1556.02 1086.36,1551 1087 C 1545.98 1087.64,1515.38 1097.37,1512 1099 C 1508.62 1100.63,1494.69 1113.19,1493 1115 Z M 1538 1167 C 1539.17 1167.00,1546.95 1169.18,1548 1170 C 1549.05 1170.82,1555.42 1177.79,1556 1181 C 1556.58 1184.21,1558.23 1220.28,1558 1225 C 1557.77 1229.72,1552.93 1259.03,1552 1262 C 1551.07 1264.97,1543.17 1275.01,1542 1276 C 1540.83 1276.99,1533.17 1279.00,1532 1279 C 1530.83 1279.00,1523.22 1276.88,1522 1276 C 1520.78 1275.13,1512.11 1265.63,1511 1264 C 1509.89 1262.37,1503.47 1249.87,1503 1248 C 1502.53 1246.13,1501.83 1236.26,1503 1232 C 1504.17 1227.74,1521.54 1178.62,1523 1175 C 1524.46 1171.38,1527.13 1170.47,1528 1170 C 1528.88 1169.53,1536.83 1167.00,1538 1167 Z" fill="black" fill-rule="evenodd"/>
<path d="M 1096 799 C 1093.03 799.76,1062.33 810.07,1060 811 C 1057.67 811.93,1056.29 814.24,1056 815 C 1055.71 815.76,1054.07 812.57,1055 824 C 1055.93 835.43,1069.08 984.87,1072 1011 C 1074.92 1037.13,1102.84 1253.51,1105 1272 C 1107.16 1290.49,1108.30 1324.03,1109 1328 C 1109.70 1331.97,1115.42 1339.24,1117 1340 C 1118.58 1340.76,1134.25 1341.17,1136 1341 C 1137.75 1340.83,1144.67 1337.12,1147 1337 C 1149.33 1336.88,1173.55 1339.29,1176 1339 C 1178.45 1338.71,1187.66 1333.28,1189 1332 C 1190.34 1330.72,1198.77 1318.63,1199 1317 C 1199.23 1315.37,1194.92 1315.78,1193 1304 C 1191.08 1292.22,1169.15 1142.53,1166 1115 C 1162.85 1087.47,1140.52 849.27,1139 832 C 1137.48 814.73,1140.06 820.34,1140 819 C 1139.94 817.66,1138.41 809.93,1138 809 C 1137.59 808.07,1134.58 803.64,1133 803 C 1131.42 802.36,1113.16 798.23,1111 798 C 1108.84 797.77,1098.97 798.24,1096 799 Z" fill="black" fill-rule="evenodd"/>
<path d="M 649 1099 C 647.54 1098.24,632.09 1093.17,629 1093 C 625.91 1092.83,599.62 1094.89,596 1096 C 592.38 1097.11,568.98 1110.48,567 1112 C 565.02 1113.52,560.19 1112.61,562 1122 C 563.81 1131.39,594.79 1258.18,598 1273 C 601.21 1287.82,615.83 1367.19,617 1376 C 618.17 1384.81,618.41 1419.39,618 1424 C 617.59 1428.61,611.17 1452.61,610 1455 C 608.83 1457.39,600.63 1463.48,598 1465 C 595.38 1466.52,568.03 1479.72,565 1481 C 561.97 1482.28,548.80 1486.47,546 1487 C 543.20 1487.53,520.15 1490.35,517 1490 C 513.85 1489.65,494.63 1482.81,492 1481 C 489.38 1479.19,473.98 1460.81,472 1459 C 470.02 1457.19,459.69 1450.76,458 1450 C 456.31 1449.24,445.04 1445.77,443 1446 C 440.96 1446.23,424.69 1453.13,423 1454 C 421.31 1454.88,415.28 1459.08,414 1461 C 412.72 1462.92,401.52 1484.55,401 1487 C 400.48 1489.45,404.30 1501.48,405 1503 C 405.70 1504.52,411.07 1511.78,413 1513 C 414.93 1514.22,435.38 1523.13,438 1524 C 440.63 1524.88,453.45 1527.83,458 1528 C 462.55 1528.17,510.17 1527.41,516 1527 C 521.83 1526.59,552.46 1522.22,558 1521 C 563.54 1519.78,606.39 1507.58,611 1506 C 615.61 1504.42,633.79 1495.69,637 1494 C 640.21 1492.31,662.91 1479.28,666 1477 C 669.09 1474.72,688.02 1458.15,690 1455 C 691.98 1451.85,699.71 1430.70,700 1423 C 700.29 1415.30,697.51 1339.22,695 1323 C 692.49 1306.78,659.39 1157.66,657 1145 C 654.61 1132.34,654.47 1108.68,654 1106 C 653.53 1103.32,650.46 1099.76,649 1099 Z" fill="black" fill-rule="evenodd"/>
<path d="M 774 1087 C 771.78 1088.34,770.23 1091.96,770 1094 C 769.77 1096.04,770.29 1117.97,770 1122 C 769.71 1126.03,765.23 1159.09,765 1163 C 764.77 1166.91,765.30 1184.45,766 1189 C 766.70 1193.55,774.78 1235.17,777 1241 C 779.22 1246.83,801.90 1285.73,804 1289 C 806.10 1292.27,811.19 1296.13,813 1297 C 814.81 1297.88,830.98 1303.42,835 1304 C 839.02 1304.58,876.46 1307.47,882 1307 C 887.54 1306.53,925.63 1297.58,930 1296 C 934.38 1294.42,954.26 1282.68,957 1280 C 959.74 1277.32,975.42 1253.27,977 1250 C 978.58 1246.73,983.36 1228.38,984 1224 C 984.64 1219.63,988.17 1181.65,988 1175 C 987.83 1168.35,981.88 1114.14,981 1110 C 980.13 1105.86,974.11 1104.47,973 1104 C 971.89 1103.53,965.56 1102.00,962 1102 C 958.44 1102.00,915.62 1103.53,912 1104 C 908.38 1104.47,900.93 1109.01,900 1110 C 899.07 1110.99,895.83 1118.49,896 1121 C 896.17 1123.51,902.71 1147.69,903 1153 C 903.29 1158.31,901.52 1207.33,901 1212 C 900.48 1216.67,894.76 1231.42,894 1233 C 893.24 1234.58,888.93 1238.47,888 1239 C 887.07 1239.53,879.17 1242.00,878 1242 C 876.83 1242.00,868.88 1239.47,868 1239 C 867.13 1238.53,863.99 1236.22,863 1234 C 862.01 1231.78,851.88 1203.97,851 1201 C 850.13 1198.03,848.23 1186.67,848 1183 C 847.77 1179.33,846.88 1141.85,847 1138 C 847.12 1134.15,849.36 1119.45,850 1117 C 850.64 1114.55,857.65 1098.28,858 1096 C 858.35 1093.72,856.76 1079.46,856 1078 C 855.24 1076.54,847.80 1071.41,845 1071 C 842.20 1070.59,812.14 1070.07,808 1071 C 803.86 1071.93,776.22 1085.66,774 1087 Z" fill="black" fill-rule="evenodd"/>
<path d="M 1303 1056 C 1300.55 1056.06,1289.57 1059.25,1287 1061 C 1284.43 1062.75,1258.94 1076.67,1259 1086 C 1259.06 1095.33,1285.90 1208.40,1288 1221 C 1290.10 1233.60,1294.13 1296.75,1295 1302 C 1295.88 1307.25,1299.27 1310.42,1303 1311 C 1306.73 1311.58,1354.74 1312.29,1359 1312 C 1363.26 1311.71,1374.78 1307.63,1376 1306 C 1377.22 1304.37,1380.00 1285.87,1380 1284 C 1380.00 1282.13,1376.70 1278.38,1376 1274 C 1375.30 1269.63,1369.69 1218.39,1368 1209 C 1366.31 1199.61,1348.40 1121.11,1347 1113 C 1345.60 1104.89,1344.47 1072.86,1344 1070 C 1343.53 1067.14,1339.88 1064.58,1339 1064 C 1338.13 1063.42,1331.10 1060.47,1329 1060 C 1326.90 1059.53,1305.45 1055.94,1303 1056 Z" fill="black" fill-rule="evenodd"/>
<path d="M 666 947 C 665.48 945.66,658.27 942.35,656 942 C 653.73 941.65,631.02 940.30,627 941 C 622.98 941.70,589.45 952.72,587 954 C 584.55 955.28,584.53 962.01,585 963 C 585.47 963.99,593.48 970.36,595 971 C 596.52 971.64,608.02 973.83,611 974 C 613.98 974.17,642.85 974.52,646 974 C 649.15 973.48,663.83 966.58,665 965 C 666.17 963.42,666.52 948.34,666 947 Z" fill="black" fill-rule="evenodd"/>
</g>
</svg>